<svg width="14" height="23" viewBox="0 0 14 23" fill="none" xmlns="http://www.w3.org/2000/svg">
<path d="M0.416016 11.1865C0.416016 11.7847 0.635742 12.2852 1.13623 12.7734L10.3647 21.8188C10.7432 22.1851 11.1826 22.3682 11.7197 22.3682C12.7939 22.3682 13.6851 21.5015 13.6851 20.4272C13.6851 19.8779 13.4531 19.3896 13.0503 18.9868L5.00586 11.1743L13.0503 3.37402C13.4531 2.9834 13.6851 2.48291 13.6851 1.9458C13.6851 0.883789 12.7939 0.00488281 11.7197 0.00488281C11.1826 0.00488281 10.7432 0.187988 10.3647 0.554199L1.13623 9.59961C0.635742 10.0757 0.428223 10.5762 0.416016 11.1865Z" fill="black"/>
</svg>
