<svg width="29" height="26" viewBox="0 0 29 26" fill="none" xmlns="http://www.w3.org/2000/svg">
<path d="M1.86572 14.687H27.1221V12.5874H1.86572V14.687ZM6.98047 16.3105H9.95898C10.431 16.3105 10.7931 16.1844 11.0454 15.9321C11.3058 15.6717 11.436 15.3096 11.436 14.8457V12.4531C11.436 11.9811 11.3058 11.619 11.0454 11.3667C10.7931 11.1063 10.431 10.9761 9.95898 10.9761H6.98047C6.50846 10.9761 6.14632 11.1063 5.89404 11.3667C5.64176 11.619 5.51562 11.9811 5.51562 12.4531V14.8457C5.51562 15.3096 5.64176 15.6717 5.89404 15.9321C6.14632 16.1844 6.50846 16.3105 6.98047 16.3105ZM19.0166 16.3105H21.9951C22.4671 16.3105 22.8293 16.1844 23.0815 15.9321C23.342 15.6717 23.4722 15.3096 23.4722 14.8457V12.4531C23.4722 11.9811 23.342 11.619 23.0815 11.3667C22.8293 11.1063 22.4671 10.9761 21.9951 10.9761H19.0166C18.5446 10.9761 18.1784 11.1063 17.918 11.3667C17.6657 11.619 17.5396 11.9811 17.5396 12.4531V14.8457C17.5396 15.3096 17.6657 15.6717 17.918 15.9321C18.1784 16.1844 18.5446 16.3105 19.0166 16.3105ZM4.00195 25.0508H24.9858C26.2879 25.0508 27.2686 24.7212 27.9277 24.062C28.5951 23.411 28.9287 22.4385 28.9287 21.1445V9.20605C28.9287 7.90397 28.5951 6.92741 27.9277 6.27637C27.2686 5.61719 26.2879 5.2876 24.9858 5.2876H4.00195C2.70801 5.2876 1.72738 5.61719 1.06006 6.27637C0.392741 6.92741 0.059082 7.90397 0.059082 9.20605V21.1445C0.059082 22.4385 0.392741 23.411 1.06006 24.062C1.72738 24.7212 2.70801 25.0508 4.00195 25.0508ZM4.09961 22.7437C3.57064 22.7437 3.16374 22.6053 2.87891 22.3286C2.60221 22.0519 2.46387 21.6328 2.46387 21.0713V9.2793C2.46387 8.71777 2.60221 8.29867 2.87891 8.02197C3.16374 7.74528 3.57064 7.60693 4.09961 7.60693H24.8882C25.4172 7.60693 25.82 7.74528 26.0967 8.02197C26.3815 8.29867 26.5239 8.71777 26.5239 9.2793V21.0713C26.5239 21.6328 26.3815 22.0519 26.0967 22.3286C25.82 22.6053 25.4172 22.7437 24.8882 22.7437H4.09961ZM8.09131 6.28857H10.313V4.17676C10.313 3.74544 10.4351 3.41178 10.6792 3.17578C10.9233 2.93978 11.2692 2.82178 11.7168 2.82178H17.271C17.7186 2.82178 18.0604 2.93978 18.2964 3.17578C18.5405 3.41178 18.6626 3.74544 18.6626 4.17676V6.26416H20.8843V4.17676C20.8843 3.02116 20.5791 2.16667 19.9688 1.61328C19.3665 1.05176 18.4876 0.770996 17.332 0.770996H11.6313C10.5409 0.770996 9.67822 1.05176 9.04346 1.61328C8.40869 2.16667 8.09131 3.02116 8.09131 4.17676V6.28857Z" fill="#787880" fill-opacity="0.4"/>
</svg>
