<svg width="29" height="26" viewBox="0 0 29 26" fill="none" xmlns="http://www.w3.org/2000/svg">
<path d="M0.059082 14.687V12.5874H5.32031V12.3311C5.361 11.4277 5.84521 10.9761 6.77295 10.9761H9.75146C10.6873 10.9761 11.1756 11.4277 11.2163 12.3311V12.5874H17.7593V12.3311C17.8 11.4277 18.2882 10.9761 19.2241 10.9761H22.2026C23.1385 10.9761 23.6268 11.4277 23.6675 12.3311V12.5874H28.9287V14.687H23.6675V14.9678C23.6268 15.863 23.1385 16.3105 22.2026 16.3105H19.2241C18.2882 16.3105 17.8 15.863 17.7593 14.9678V14.687H11.2163V14.9678C11.1756 15.863 10.6873 16.3105 9.75146 16.3105H6.77295C5.84521 16.3105 5.361 15.863 5.32031 14.9678V14.687H0.059082ZM4.00195 25.0508H24.9858C26.2879 25.0508 27.2686 24.7212 27.9277 24.062C28.5951 23.411 28.9287 22.4385 28.9287 21.1445V9.20605C28.9287 7.90397 28.5951 6.92741 27.9277 6.27637C27.2686 5.61719 26.2879 5.2876 24.9858 5.2876H4.00195C2.70801 5.2876 1.72738 5.61719 1.06006 6.27637C0.392741 6.92741 0.059082 7.90397 0.059082 9.20605V21.1445C0.059082 22.4385 0.392741 23.411 1.06006 24.062C1.72738 24.7212 2.70801 25.0508 4.00195 25.0508ZM8.09131 6.28857H10.313V4.17676C10.313 3.74544 10.4351 3.41178 10.6792 3.17578C10.9233 2.93978 11.2692 2.82178 11.7168 2.82178H17.271C17.7186 2.82178 18.0604 2.93978 18.2964 3.17578C18.5405 3.41178 18.6626 3.74544 18.6626 4.17676V6.26416H20.8843V4.17676C20.8843 3.02116 20.5791 2.16667 19.9688 1.61328C19.3665 1.05176 18.4876 0.770996 17.332 0.770996H11.6313C10.5409 0.770996 9.67822 1.05176 9.04346 1.61328C8.40869 2.16667 8.09131 3.02116 8.09131 4.17676V6.28857Z" fill="#007AFF"/>
</svg>
