<svg width="18" height="28" viewBox="0 0 18 28" fill="none" xmlns="http://www.w3.org/2000/svg">
<path d="M2.04199 27.5898C2.70117 27.5898 3.11621 27.2358 4.16602 26.2104L8.87793 21.5474C8.93896 21.4985 9.03662 21.4985 9.09766 21.5474L13.8096 26.2227C14.8716 27.2358 15.2744 27.5898 15.9336 27.5898C16.8979 27.5898 17.5083 26.9185 17.5083 25.832V4.54297C17.5083 2.12598 16.2388 0.844238 13.8462 0.844238H4.1416C1.74902 0.844238 0.479492 2.12598 0.479492 4.54297V25.832C0.479492 26.9185 1.07764 27.5898 2.04199 27.5898ZM3.20166 23.6226C3.03076 23.7812 2.84766 23.7324 2.84766 23.5005V4.67725C2.84766 3.70068 3.33594 3.2124 4.32471 3.2124H13.6631C14.6396 3.2124 15.1401 3.70068 15.1401 4.67725V23.5005C15.1401 23.7324 14.9448 23.7812 14.7861 23.6226L9.79346 18.7886C9.28076 18.2881 8.70703 18.2881 8.19434 18.7886L3.20166 23.6226Z" fill="#787880" fill-opacity="0.4"/>
</svg>
