<svg width="27" height="24" viewBox="0 0 27 24" fill="none" xmlns="http://www.w3.org/2000/svg">
<path d="M0.121094 22.7456C0.121094 23.3804 0.536133 23.7954 1.1709 23.7954H25.6216C26.293 23.7954 26.8301 23.2827 26.8301 22.5991C26.8301 21.9155 26.293 21.4028 25.6216 21.4028H2.85547C2.59912 21.4028 2.51367 21.3174 2.51367 21.061V15.8853L7.54297 10.7217C7.64062 10.6118 7.7627 10.563 7.86035 10.563C7.95801 10.563 8.08008 10.6118 8.18994 10.7217L12.5479 15.2261C13.0972 15.8242 13.6831 16.0806 14.2935 16.0806C14.9038 16.0806 15.4653 15.812 16.0513 15.2383L21.0684 10.1968L22.9849 12.1255C23.4976 12.6382 24.2178 12.333 24.4131 11.6006L26.2441 4.41064C26.4272 3.73926 25.8291 3.16553 25.1577 3.33643L17.9922 5.16748C17.2598 5.36279 16.9424 6.05859 17.4673 6.5835L19.3716 8.5L14.623 13.3218C14.5254 13.4316 14.4033 13.4927 14.3057 13.4927C14.1958 13.4927 14.0859 13.4316 13.9761 13.3218L9.61816 8.81738C9.05664 8.23145 8.4707 7.96289 7.86035 7.96289C7.25 7.96289 6.71289 8.20703 6.11475 8.81738L2.51367 12.4673V1.87158C2.51367 1.2002 2.00098 0.663086 1.31738 0.663086C0.633789 0.663086 0.121094 1.2002 0.121094 1.87158V22.7456Z" fill="#787880" fill-opacity="0.4"/>
</svg>
