<svg width="30" height="27" viewBox="0 0 30 27" fill="none" xmlns="http://www.w3.org/2000/svg">
<path d="M6.40625 26.2847C6.95964 26.2847 7.67578 26.1219 8.55469 25.7964C9.44173 25.4709 10.3735 25.0436 11.3501 24.5146C12.3267 23.9938 13.2422 23.4242 14.0967 22.8057C15.8219 22.8382 17.4455 22.6755 18.9673 22.3174C20.4891 21.9593 21.8685 21.4425 23.1055 20.7671C24.3506 20.0835 25.4207 19.2697 26.3159 18.3257C27.2192 17.3735 27.915 16.3197 28.4033 15.1641C28.8916 14.0085 29.1357 12.7756 29.1357 11.4653C29.1357 9.89469 28.7736 8.42171 28.0493 7.04639C27.325 5.66292 26.3159 4.45443 25.022 3.4209C23.728 2.37923 22.2225 1.56543 20.5054 0.979492C18.7964 0.393555 16.9613 0.100586 15 0.100586C13.0387 0.100586 11.1995 0.393555 9.48242 0.979492C7.77344 1.56543 6.27197 2.37923 4.97803 3.4209C3.69222 4.45443 2.68311 5.66292 1.95068 7.04639C1.2264 8.42171 0.864258 9.89469 0.864258 11.4653C0.864258 12.8 1.12467 14.0695 1.64551 15.2739C2.16634 16.4784 2.89876 17.5648 3.84277 18.5332C4.79492 19.5016 5.90983 20.2951 7.1875 20.9136C7.00846 21.2472 6.79688 21.6094 6.55273 22C6.31673 22.3825 6.07666 22.7487 5.83252 23.0986C5.58838 23.4567 5.37679 23.7497 5.19775 23.9775C4.93734 24.3193 4.81527 24.6693 4.83154 25.0273C4.85596 25.3854 5.00244 25.6825 5.271 25.9185C5.53955 26.1626 5.91797 26.2847 6.40625 26.2847ZM7.85889 23.8066C7.78564 23.8392 7.73682 23.8351 7.7124 23.7944C7.68799 23.7619 7.70426 23.7131 7.76123 23.6479C8.07048 23.2655 8.42448 22.8016 8.82324 22.2563C9.22201 21.7192 9.53532 21.2432 9.76318 20.8281C9.94222 20.4863 9.99105 20.1771 9.90967 19.9004C9.83643 19.6156 9.60449 19.3796 9.21387 19.1924C7.96875 18.6064 6.90674 17.9188 6.02783 17.1294C5.14893 16.3319 4.47754 15.457 4.01367 14.5049C3.55794 13.5446 3.33008 12.5314 3.33008 11.4653C3.33008 10.2365 3.62712 9.08496 4.22119 8.01074C4.8234 6.93652 5.65755 5.98844 6.72363 5.1665C7.78971 4.34456 9.03076 3.70166 10.4468 3.23779C11.8628 2.77393 13.3805 2.54199 15 2.54199C16.6276 2.54199 18.1453 2.77393 19.5532 3.23779C20.9692 3.70166 22.2103 4.34456 23.2764 5.1665C24.3424 5.98844 25.1766 6.93652 25.7788 8.01074C26.381 9.08496 26.6821 10.2365 26.6821 11.4653C26.6821 12.6942 26.381 13.8498 25.7788 14.9321C25.1766 16.0063 24.3424 16.9544 23.2764 17.7764C22.2103 18.5902 20.9692 19.229 19.5532 19.6929C18.1453 20.1567 16.6276 20.3887 15 20.3887C14.8861 20.3887 14.7437 20.3887 14.5728 20.3887C14.41 20.3805 14.2228 20.3724 14.0112 20.3643C13.7508 20.3643 13.5107 20.409 13.291 20.4985C13.0713 20.5799 12.8434 20.7142 12.6074 20.9014C12.1191 21.2594 11.5739 21.6338 10.9717 22.0244C10.3776 22.4232 9.7998 22.7812 9.23828 23.0986C8.67676 23.4242 8.21696 23.6602 7.85889 23.8066Z" fill="#787880" fill-opacity="0.4"/>
</svg>
