<svg width="18" height="16" viewBox="0 0 18 16" fill="none" xmlns="http://www.w3.org/2000/svg">
<path d="M11.9717 4.94385C12.835 4.94385 13.5654 4.3877 13.8477 3.62402H16.7197C17.0601 3.62402 17.3589 3.3252 17.3589 2.95166C17.3589 2.57812 17.0601 2.2876 16.7197 2.2876H13.8477C13.5737 1.51562 12.835 0.951172 11.9717 0.951172C11.1084 0.951172 10.3613 1.51562 10.0874 2.2876H1.29688C0.92334 2.2876 0.632812 2.57812 0.632812 2.95166C0.632812 3.3252 0.92334 3.62402 1.29688 3.62402H10.0957C10.3696 4.3877 11.1084 4.94385 11.9717 4.94385ZM11.9717 3.92285C11.4238 3.92285 11.0005 3.49121 11.0005 2.94336C11.0005 2.39551 11.4238 1.97217 11.9717 1.97217C12.5195 1.97217 12.9429 2.39551 12.9429 2.94336C12.9429 3.49121 12.5195 3.92285 11.9717 3.92285ZM1.26367 7.35107C0.92334 7.35107 0.632812 7.6499 0.632812 8.02344C0.632812 8.39697 0.92334 8.6875 1.26367 8.6875H4.23535C4.50928 9.46777 5.24805 10.0239 6.11133 10.0239C6.97461 10.0239 7.71338 9.46777 7.99561 8.6875H16.6865C17.0601 8.6875 17.3589 8.39697 17.3589 8.02344C17.3589 7.6499 17.0601 7.35107 16.6865 7.35107H7.9873C7.71338 6.5874 6.97461 6.03125 6.11133 6.03125C5.24805 6.03125 4.50928 6.5874 4.23535 7.35107H1.26367ZM6.11133 8.99463C5.57178 8.99463 5.14014 8.56299 5.14014 8.02344C5.14014 7.47559 5.57178 7.05225 6.11133 7.05225C6.65918 7.05225 7.08252 7.47559 7.08252 8.02344C7.08252 8.56299 6.65918 8.99463 6.11133 8.99463ZM11.9717 15.0874C12.835 15.0874 13.5737 14.5312 13.8477 13.7593H16.7197C17.0601 13.7593 17.3589 13.4688 17.3589 13.0952C17.3589 12.7217 17.0601 12.4229 16.7197 12.4229H13.8477C13.5737 11.6509 12.835 11.103 11.9717 11.103C11.1084 11.103 10.3696 11.6509 10.0957 12.4229H1.29688C0.92334 12.4229 0.632812 12.7217 0.632812 13.0952C0.632812 13.4688 0.92334 13.7593 1.29688 13.7593H10.0874C10.3696 14.5312 11.1084 15.0874 11.9717 15.0874ZM11.9717 14.0664C11.4238 14.0664 11.0005 13.6348 11.0005 13.0952C11.0005 12.5391 11.4238 12.124 11.9717 12.124C12.5195 12.124 12.9429 12.5391 12.9429 13.0952C12.9429 13.6348 12.5195 14.0664 11.9717 14.0664Z" fill="black"/>
</svg>
