<svg width="9" height="15" viewBox="0 0 9 15" fill="none" xmlns="http://www.w3.org/2000/svg">
<path d="M8.00781 7.35938C8.00781 7.16406 7.92969 6.98438 7.78125 6.84375L1.59375 0.78125C1.45312 0.648438 1.28125 0.578125 1.07812 0.578125C0.679688 0.578125 0.367188 0.882812 0.367188 1.28906C0.367188 1.48438 0.445312 1.66406 0.570312 1.79688L6.25781 7.35938L0.570312 12.9219C0.445312 13.0547 0.367188 13.2266 0.367188 13.4297C0.367188 13.8359 0.679688 14.1406 1.07812 14.1406C1.28125 14.1406 1.45312 14.0703 1.59375 13.9297L7.78125 7.875C7.92969 7.72656 8.00781 7.55469 8.00781 7.35938Z" fill="#3C3C43" fill-opacity="0.29"/>
</svg>
