<svg width="22" height="24" viewBox="0 0 22 24" fill="none" xmlns="http://www.w3.org/2000/svg">
<path d="M0.169922 18.0449C0.169922 18.5033 0.327474 18.8721 0.642578 19.1514C0.964844 19.4235 1.40527 19.5596 1.96387 19.5596H6.38965C6.41829 20.2542 6.61165 20.8988 6.96973 21.4932C7.33496 22.0947 7.82552 22.5781 8.44141 22.9434C9.06445 23.3158 9.7806 23.502 10.5898 23.502C11.4062 23.502 12.1224 23.3158 12.7383 22.9434C13.3613 22.5781 13.8519 22.0947 14.21 21.4932C14.5752 20.8988 14.7721 20.2542 14.8008 19.5596H19.2266C19.7852 19.5596 20.222 19.4235 20.5371 19.1514C20.8594 18.8721 21.0205 18.5033 21.0205 18.0449C21.0205 17.6654 20.9202 17.3037 20.7197 16.96C20.5192 16.609 20.2614 16.2725 19.9463 15.9502C19.6383 15.6279 19.3232 15.3092 19.001 14.9941C18.7503 14.7507 18.5534 14.432 18.4102 14.0381C18.2741 13.6442 18.1702 13.2109 18.0986 12.7383C18.027 12.2656 17.9697 11.7822 17.9268 11.2881C17.8838 9.93457 17.7119 8.73503 17.4111 7.68945C17.1175 6.64388 16.6735 5.7666 16.0791 5.05762C15.4919 4.34863 14.7292 3.82585 13.791 3.48926C13.5905 2.78027 13.2074 2.18587 12.6416 1.70605C12.0758 1.22624 11.3919 0.986328 10.5898 0.986328C9.79492 0.986328 9.11458 1.22624 8.54883 1.70605C7.98307 2.18587 7.59993 2.78027 7.39941 3.48926C6.46126 3.82585 5.69499 4.34863 5.10059 5.05762C4.51335 5.7666 4.06934 6.64388 3.76855 7.68945C3.47493 8.73503 3.30664 9.93457 3.26367 11.2881C3.2207 11.7822 3.16341 12.2656 3.0918 12.7383C3.02018 13.2109 2.91276 13.6442 2.76953 14.0381C2.63346 14.432 2.4401 14.7507 2.18945 14.9941C1.86719 15.3092 1.5485 15.6279 1.2334 15.9502C0.925456 16.2725 0.671224 16.609 0.470703 16.96C0.270182 17.3037 0.169922 17.6654 0.169922 18.0449ZM2.7373 17.5938V17.4648C2.8304 17.3717 2.95573 17.2464 3.11328 17.0889C3.27083 16.9313 3.44271 16.7594 3.62891 16.5732C3.8151 16.3799 3.99414 16.1829 4.16602 15.9824C4.35221 15.7747 4.51335 15.5241 4.64941 15.2305C4.78548 14.9297 4.90007 14.5931 4.99316 14.2207C5.09342 13.8411 5.1722 13.4294 5.22949 12.9854C5.29395 12.5413 5.34049 12.0615 5.36914 11.5459C5.41211 10.0993 5.57682 8.94629 5.86328 8.08691C6.14974 7.22038 6.52572 6.57585 6.99121 6.15332C7.45671 5.72363 7.97949 5.43001 8.55957 5.27246C8.68848 5.24382 8.78874 5.19368 8.86035 5.12207C8.93913 5.04329 8.9821 4.93229 8.98926 4.78906C9.0179 4.24479 9.17546 3.80436 9.46191 3.46777C9.74837 3.13118 10.1243 2.96289 10.5898 2.96289C11.0697 2.96289 11.4492 3.13118 11.7285 3.46777C12.015 3.80436 12.1725 4.24479 12.2012 4.78906C12.2083 4.93229 12.2477 5.04329 12.3193 5.12207C12.3981 5.19368 12.4984 5.24382 12.6201 5.27246C13.2002 5.43001 13.723 5.72363 14.1885 6.15332C14.6611 6.57585 15.0407 7.22038 15.3271 8.08691C15.6136 8.94629 15.7783 10.0993 15.8213 11.5459C15.8499 12.0615 15.8929 12.5413 15.9502 12.9854C16.0146 13.4294 16.0934 13.8411 16.1865 14.2207C16.2796 14.5931 16.3942 14.9297 16.5303 15.2305C16.6663 15.5241 16.8275 15.7747 17.0137 15.9824C17.1927 16.1829 17.3717 16.3799 17.5508 16.5732C17.737 16.7594 17.9053 16.9313 18.0557 17.0889C18.2061 17.2464 18.3278 17.3717 18.4209 17.4648V17.5938H2.7373ZM8.41992 19.5596H12.7705C12.7275 20.2399 12.5055 20.7806 12.1045 21.1816C11.7106 21.5827 11.2057 21.7832 10.5898 21.7832C9.98828 21.7832 9.4834 21.5827 9.0752 21.1816C8.67415 20.7806 8.45573 20.2399 8.41992 19.5596Z" fill="black"/>
</svg>
