<svg width="23" height="24" viewBox="0 0 23 24" fill="none" xmlns="http://www.w3.org/2000/svg">
<path d="M11.5122 12.4429C14.4541 12.4429 16.8467 9.84277 16.8467 6.64453C16.8467 3.50732 14.4663 0.992676 11.5122 0.992676C8.57031 0.992676 6.15332 3.53174 6.16553 6.66895C6.17773 9.85498 8.55811 12.4429 11.5122 12.4429ZM11.5122 10.3311C9.81543 10.3311 8.38721 8.75635 8.375 6.66895C8.375 4.64258 9.80322 3.10449 11.5122 3.10449C13.2212 3.10449 14.6372 4.61816 14.6372 6.64453C14.6372 8.73193 13.209 10.3311 11.5122 10.3311ZM3.89502 23.7954H19.1172C21.2168 23.7954 22.23 23.1362 22.23 21.708C22.23 18.3633 18.0552 13.8711 11.5 13.8711C4.94482 13.8711 0.77002 18.3633 0.77002 21.708C0.77002 23.1362 1.7832 23.7954 3.89502 23.7954ZM3.47998 21.6836C3.19922 21.6836 3.08936 21.5981 3.08936 21.3662C3.08936 19.4985 6.10449 15.9829 11.5 15.9829C16.8955 15.9829 19.9229 19.4985 19.9229 21.3662C19.9229 21.5981 19.8008 21.6836 19.52 21.6836H3.47998Z" fill="#787880" fill-opacity="0.4"/>
</svg>
